<svg width="32" height="32" viewBox="0 0 32 32" fill="none" xmlns="http://www.w3.org/2000/svg">
<path d="M26 24.9312C29.6562 22.3625 32 18.425 32 14C32 6.26875 24.8375 0 16 0C7.1625 0 0 6.26875 0 14C0 18.4187 2.34375 22.3625 6 24.9312V29C6 30.6562 7.34375 32 9 32H12V29C12 28.45 12.45 28 13 28C13.55 28 14 28.45 14 29V32H18V29C18 28.45 18.45 28 19 28C19.55 28 20 28.45 20 29V32H23C24.6562 32 26 30.6562 26 29V25V24.9312ZM6 16C6 14.9391 6.42143 13.9217 7.17157 13.1716C7.92172 12.4214 8.93913 12 10 12C11.0609 12 12.0783 12.4214 12.8284 13.1716C13.5786 13.9217 14 14.9391 14 16C14 17.0609 13.5786 18.0783 12.8284 18.8284C12.0783 19.5786 11.0609 20 10 20C8.93913 20 7.92172 19.5786 7.17157 18.8284C6.42143 18.0783 6 17.0609 6 16ZM22 12C23.0609 12 24.0783 12.4214 24.8284 13.1716C25.5786 13.9217 26 14.9391 26 16C26 17.0609 25.5786 18.0783 24.8284 18.8284C24.0783 19.5786 23.0609 20 22 20C20.9391 20 19.9217 19.5786 19.1716 18.8284C18.4214 18.0783 18 17.0609 18 16C18 14.9391 18.4214 13.9217 19.1716 13.1716C19.9217 12.4214 20.9391 12 22 12Z" fill="#22272A"/>
</svg>
